<svg width="274" height="507" viewBox="0 0 274 507" fill="none" xmlns="http://www.w3.org/2000/svg">
<path d="M467.135 175.578C466.101 182.418 464.367 189.137 462.34 195.71C459.323 205.478 455.438 215.012 450.101 223.759C444.06 233.647 436.058 242.411 426.655 249.204C421.291 253.087 415.456 256.246 409.308 258.59C401.387 261.589 392.992 263.131 384.578 264.002C378.692 264.62 372.844 264.849 366.976 264.407C360.268 263.874 353.607 262.421 347.191 260.303C343.889 259.219 340.7 257.965 337.449 256.695C337.81 259.319 338.233 261.96 338.656 264.601C340.703 276.324 344.406 287.825 346.453 299.548C347.731 306.941 348.305 314.478 348.288 321.989C348.257 330.295 347.54 338.683 345.767 346.788C344.402 352.874 342.462 358.873 340.709 364.921C339.799 368.07 338.872 371.28 337.962 374.428C338.836 377.123 339.789 379.773 340.303 382.572C340.908 385.527 341.09 388.569 340.946 391.59C340.542 400.794 336.98 409.617 332.464 417.785C327.578 426.586 321.63 434.637 314.515 441.577C309.858 446.049 304.788 450.078 299.412 453.759C291.749 459.022 283.74 463.594 275.578 467.992C271.221 470.35 266.802 472.691 262.31 474.813C256.686 477.43 250.898 479.67 245.007 481.55C239.397 483.373 233.651 484.959 227.904 486.546C224.522 487.502 221.14 488.458 217.716 489.07C215.121 489.572 212.451 489.854 209.815 490.013C207.787 490.134 205.713 490.177 203.805 490.597C201.537 491.12 199.367 492.268 197.259 493.433C193.262 495.687 189.481 498.133 185.382 500.028C180.293 502.389 174.782 503.839 169.186 504.867C162.666 506.113 156.003 506.655 149.485 505.907C144.71 505.359 140.056 504.112 135.663 502.137C131.44 500.273 127.54 497.699 124.022 494.694C120.888 491.992 118.198 488.877 115.445 485.745C112.172 482.074 108.82 478.449 105.957 474.489C104.052 471.917 102.462 469.163 100.984 466.239C99.7162 463.771 98.606 461.212 96.8331 459.141C95.5643 457.67 94.0096 456.522 92.2975 455.464C88.828 453.271 85.0513 451.727 81.5152 449.782C75.7706 446.646 70.5402 442.584 65.5005 438.307C61.2132 434.697 57.0666 431.059 53.0652 427.126C44.4342 418.628 36.7396 409.117 30.18 398.845C27.1727 394.182 24.4181 389.32 22.4005 384.19C19.83 377.648 18.4188 370.751 17.1649 363.764C16.5358 360.403 15.952 357.12 15.9146 353.785C15.8374 349.108 16.8818 344.466 18.0502 339.857C18.6821 337.499 19.314 335.141 20.3636 332.961C20.9278 331.848 21.5374 330.814 22.2711 329.814C22.8929 328.983 23.5601 328.23 24.2273 327.478C23.6026 323.852 22.9778 320.226 22.7421 316.637C22.0016 305.996 24.5514 295.239 27.6719 284.835C31.32 272.709 35.7705 261.064 41.4122 249.938C46.523 239.801 52.7009 230.149 59.5404 221.007C63.2378 216.145 67.1047 211.394 71.2775 206.991C73.9751 204.123 76.8256 201.428 79.6761 198.733C76.4402 198.398 73.1877 198.125 69.9229 197.649C61.2004 196.443 52.5245 194.318 44.467 190.629C36.4717 186.957 29.0948 181.721 22.9526 175.353C16.6575 168.81 11.6136 161.074 7.85753 152.751C4.35739 144.962 1.92559 136.661 0.992104 128.23C0.353149 122.671 0.339227 117.014 0.714282 111.394C1.14813 105.059 1.97096 98.7608 3.18276 92.5007C3.81584 89.1451 4.51096 85.8061 5.33021 82.5004C6.47756 78.2184 7.93521 74.0196 9.5624 69.9327C13.647 59.6534 18.658 49.8883 25.042 40.9567C30.9328 32.6247 37.965 24.9975 46.8002 18.5851C53.3157 13.8792 60.8031 9.76616 68.318 6.79128C78.6734 2.6486 89.1672 0.471892 99.7705 0.120394C109.563 -0.182412 119.452 1.13719 128.785 4.03705C134.676 5.88161 140.339 8.33011 145.823 11.1964C152.25 14.5149 158.387 18.4207 163.762 23.1865C169.289 28.1262 174.099 34.0045 177.762 40.4401C180.835 45.8529 183.154 51.5958 185.017 57.5492C187.31 64.8812 188.927 72.4981 189.327 80.1879C189.63 86.2553 189.201 92.326 188.523 98.3302C187.616 105.936 186.275 113.425 184.358 120.826C182.791 126.925 180.834 132.985 177.951 138.532C175.599 143.089 172.614 147.278 169.845 151.657C168.435 153.94 167.025 156.223 165.677 158.522C172.651 158.063 179.642 157.542 186.64 157.488C193.373 157.43 200.148 157.715 206.835 158.576C216.555 159.784 226.145 162.22 235.316 165.476C243.449 168.387 251.32 172.025 259.125 175.913C264.704 178.671 270.251 181.554 275.478 184.884C279.117 187.189 282.627 189.726 286.2 192.28C285.601 188.062 285.064 183.861 284.746 179.585C284.261 173.203 284.447 166.801 285.005 160.499C285.521 154.85 286.442 149.177 287.781 143.683C290.621 132.339 295.509 121.543 301.663 111.485C306.262 104.004 311.6 96.9877 317.811 90.9363C324.466 84.4716 332.099 79.0676 340.295 74.5457C348.49 70.0238 357.202 66.3055 366.296 64.8844C372.124 63.9851 378.125 63.9302 384.005 64.5745C388.081 65.0015 392.074 65.7388 396.079 66.6789C402.335 68.1556 408.519 70.1454 414.476 72.7391C420.974 75.5445 427.132 79.1234 432.764 83.4259C436.964 86.6135 440.846 90.2476 444.301 94.233C448.385 98.8523 451.884 103.914 454.973 109.264C459.334 116.818 462.751 124.917 465.026 133.309C467.3 141.7 468.511 150.339 468.583 159.005C468.365 164.534 467.928 170.137 467.135 175.578ZM326.742 412.328C329.966 406.008 332.246 399.236 332.912 392.032C333.62 385.171 332.9 377.928 329.493 372.026C327.858 369.193 325.547 366.645 322.868 364.73C318.617 361.729 313.297 360.237 308.099 359.775C303.229 359.335 298.374 359.83 293.609 360.482C291.188 360.831 288.829 361.197 286.453 361.624C288.634 357.952 290.815 354.279 292.517 350.412C293.894 347.256 294.916 343.938 295.86 340.665C298.257 332.462 300.283 324.158 301.592 315.796C303.16 305.973 303.718 295.946 303.809 285.927C303.886 276.702 303.575 267.439 302.435 258.288C301.317 248.809 299.308 239.425 296.095 230.316C293.847 224.06 290.958 217.965 287.074 212.601C284.239 208.782 280.854 205.281 277.245 202.119C272.929 198.368 268.186 194.969 262.891 192.885C258.076 190.996 252.776 190.175 247.52 190.429C242.59 190.705 237.722 191.994 233.155 193.896C228.43 195.89 224.069 198.512 220.043 201.624C217.28 203.744 214.67 206.037 212.043 208.393C210.888 205.756 209.749 203.056 208.436 200.509C207.065 197.681 205.537 194.944 203.897 192.376C201.696 188.926 199.258 185.612 196.377 182.712C193.128 179.447 189.373 176.578 185.233 174.405C181.387 172.376 177.25 170.935 172.976 170.256C168.561 169.605 164.054 169.794 159.616 170.467C153.71 171.412 148.004 173.342 142.601 175.885C135.814 179.121 129.572 183.302 123.925 188.241C118.975 192.568 114.466 197.479 110.234 202.598C102.965 211.358 96.448 220.786 91.2297 230.828C86.0735 240.887 82.1828 251.684 79.0534 262.618C76.1402 272.746 73.8021 282.961 72.6597 293.43C71.8102 301.317 71.5812 309.371 72.681 317.181C73.083 320.149 73.6878 323.105 74.3092 325.998C71.5998 324.94 68.8283 323.864 66.0235 322.913C63.2021 322.024 60.3474 321.259 57.4384 320.946C53.8135 320.573 50.1631 320.792 46.6567 321.715C42.6493 322.77 38.8436 324.809 35.5586 327.388C32.4477 329.814 29.7335 332.744 27.6974 336.123C25.1637 340.366 23.6473 345.281 23.1903 350.214C22.5747 356.234 23.4696 362.327 25.0394 368.136C27.9608 378.829 33.1552 388.734 39.1697 398.062C43.6352 404.978 48.5274 411.544 53.8462 417.758C58.6608 423.371 63.9188 428.571 69.5248 433.466C74.9778 438.186 80.7789 442.6 87.1608 445.84C90.2048 447.388 93.423 448.782 96.4172 450.515C97.2815 451.013 98.0838 451.494 98.8529 452.099C100.651 453.579 101.957 455.658 103.216 457.658C104.931 460.446 106.583 463.216 108.268 465.863C111.73 471.313 115.647 476.553 119.928 481.425C122.941 484.827 126.207 488.03 129.758 490.91C133.327 493.729 137.305 496.258 141.594 497.873C145.76 499.455 150.221 500.184 154.661 500.243C158.634 500.31 162.537 499.893 166.416 499.07C171.122 498.136 175.714 496.639 180.231 494.923C184.231 493.4 188.094 491.642 191.883 489.664C194.368 488.335 196.762 486.848 199.366 485.816C201.171 485.036 203.13 484.43 205.038 484.01C209.294 483.022 213.755 482.754 218.114 482.126C226.161 480.89 233.998 478.201 241.654 475.198C253.466 470.581 264.949 465.21 275.87 458.958C281.755 455.613 287.52 451.969 293.087 448.073C299.884 443.31 306.437 438.215 312.209 432.312C317.948 426.533 322.955 419.76 326.742 412.328ZM299.078 400.392C299.595 401.196 300.016 402.107 299.531 402.177C299.329 402.189 298.832 402.056 298.476 401.894C297.082 401.387 296.189 400.749 295.217 400.156C293.522 399.036 291.562 397.913 289.597 397.054C288.468 396.551 287.243 396.157 286.081 395.779C285.181 397.4 284.202 399.067 283.132 400.576C281.01 403.532 278.333 406.074 275.549 408.521C270.565 412.972 265.445 417.188 260.11 421.212C255.943 424.352 251.685 427.335 247.001 429.672C242.003 432.191 236.534 433.984 231.854 437.054C228.64 439.119 225.789 441.814 223.125 444.559C219.35 448.469 215.836 452.649 212.214 456.734C208.973 460.388 205.732 464.043 202.215 467.49C197.334 472.301 192.006 476.794 186.117 480.404C181.723 483.15 176.977 485.471 171.968 486.789C166.88 488.153 161.574 488.593 156.314 488.115C148.332 487.373 140.555 484.624 133.723 480.333C130.316 478.156 127.07 475.623 124.408 472.649C120.751 468.675 117.979 463.876 115.428 459.002C112.756 453.829 110.4 448.475 108.246 443.109C106.273 438.058 104.459 432.916 102.739 427.666C100.711 421.336 98.794 414.836 95.2083 409.352C93.9485 407.352 92.4359 405.55 91.0187 403.64C87.833 399.395 84.8833 395.012 82.1697 390.494C78.0312 383.598 74.5221 376.339 71.6093 368.841C69.7856 364.229 68.26 359.496 66.7178 354.826C66.3621 354.665 65.9277 354.548 65.5554 354.448C64.3596 354.194 63.0763 354.516 61.855 354.854C60.3977 355.328 59.0479 355.897 57.7767 356.421C56.5842 356.9 55.5325 357.35 53.9754 358.196C52.7331 358.861 51.1593 359.77 50.9865 358.925C50.9289 358.644 51.0165 358.069 51.2116 357.589C51.5519 356.815 52.0285 356.278 52.5505 355.819C53.3872 355.179 54.3481 354.572 55.309 353.964C57.1808 352.936 59.0027 352.094 60.961 351.488C63.0766 350.791 65.3285 350.33 67.5926 350.072C70.0428 349.864 72.6128 349.954 75.0375 350.338C76.9491 350.65 78.8895 351.104 80.8421 351.76C82.7493 352.338 84.6686 353.118 86.2566 354.142C87.1043 354.702 87.8401 355.431 88.1204 356.371C88.2356 356.934 88.2721 357.542 87.9574 357.724C87.5639 357.951 86.5921 357.358 85.7732 356.939C84.3835 356.168 83.2831 355.806 82.1373 355.366C79.829 354.548 77.0364 353.8 74.4044 353.693C73.2209 353.642 72.0661 353.732 70.9113 353.822C71.4099 355.685 71.9705 357.564 72.5477 359.382C73.5703 362.516 74.7669 365.497 76.0876 368.511C77.7961 372.561 79.6453 376.581 81.714 380.528C84.7156 386.454 88.1107 392.152 92.0111 397.454C94.2217 400.375 96.6517 403.221 99.115 405.943C102.161 409.22 105.303 412.39 108.73 415.237C112.802 418.656 117.273 421.583 121.905 424.155C126.644 426.821 131.546 429.132 136.609 431.088C142.197 433.317 147.964 435.128 153.864 436.443C160.509 437.957 167.382 438.868 174.185 439.294C180.38 439.756 186.596 439.892 192.759 439.482C198.234 439.153 203.702 438.357 209.158 437.357C215.615 436.095 221.925 434.393 228.102 432.19C234.453 429.835 240.627 426.9 246.603 423.712C252.438 420.553 258.215 417.113 263.364 413.038C267.233 410.018 270.734 406.632 274.037 402.994C276.308 400.477 278.393 397.909 280.494 395.28C279.675 394.861 278.666 394.657 277.702 394.531C276.1 394.302 274.714 394.263 272.578 394.289C271.113 394.296 269.321 394.281 269.264 394C269.161 393.64 271.293 392.881 272.937 392.456C275.098 391.838 276.393 391.72 277.999 391.684C279.729 391.682 281.831 391.78 283.759 392.031C286.139 392.336 288.356 392.996 290.569 393.922C292.472 394.764 294.341 395.731 295.987 397.036C297.095 397.865 298.136 398.943 299.078 400.392ZM196.53 466.366C198.663 464.609 201.24 462.44 200.352 460.539C200.142 460.084 199.728 459.64 199.236 459.243C197.901 458.02 196.483 457.108 194.986 456.241C192.794 454.989 190.349 453.935 187.995 453.038C185.642 452.141 183.238 451.431 180.722 450.89C177.011 450.095 172.964 449.808 169.769 449.817C167.509 449.81 165.668 449.982 161.992 450.793C160.286 451.2 158.158 451.694 157.847 452.609C157.647 453.353 158.519 454.319 159.127 455.279C159.552 455.926 159.853 456.538 160.076 457.197C160.287 457.652 160.092 458.132 159.682 458.421C159.271 458.71 158.742 458.702 158.374 458.337C157.559 457.653 156.699 456.891 155.902 456.145C154.046 454.384 152.301 452.453 150.333 450.861C147.336 448.395 143.891 446.608 140.143 445.204C135.357 443.456 130.123 442.386 125.513 442.215C122.74 442.138 120.228 442.329 116.962 442.851C115.368 443.089 113.555 443.401 113.041 444.328C112.398 445.486 113.687 447.627 114.76 449.577C116.742 453.102 118.13 455.868 119.798 458.576C121.587 461.583 123.673 464.47 125.979 467.283C129.141 471.123 132.712 474.674 136.972 477.146C140.305 479.103 144.086 480.382 147.917 481.475C148.227 481.558 148.538 481.642 148.786 481.708C151.951 482.556 155.166 483.218 158.423 483.226C161.336 483.275 164.321 482.811 167.214 482.19C170.749 481.407 174.103 480.311 177.494 478.825C181.656 476.947 185.78 474.46 189.235 471.994C191.617 470.304 193.638 468.717 196.53 466.366ZM243.864 298.399C242.135 304.853 240.095 311.224 237.7 317.433C235.661 322.806 233.437 328.13 230.563 333.146C228.668 336.496 226.462 339.763 223.951 342.682C222.488 344.418 220.917 346.059 219.239 347.605C217.735 348.998 216.124 350.296 214.574 351.61C215.294 352.401 215.951 353.176 216.496 354.12C216.996 354.986 217.259 355.987 217.461 356.973C217.49 357.113 217.44 357.299 217.282 357.39C217.125 357.481 216.984 357.51 216.877 357.415C193.116 341.337 165.085 335.489 136.899 340.641C136.696 340.653 136.572 340.62 136.498 340.4C136.407 340.243 136.457 340.057 136.614 339.966C136.946 339.722 137.199 339.524 137.513 339.342C139.058 338.293 140.723 337.541 142.478 336.948C143.716 336.548 144.983 336.288 146.25 336.029C145.684 334.414 145.119 332.8 144.554 331.185C143.338 327.533 142.229 323.977 141.53 320.132C140.773 316.005 140.472 311.667 140.42 307.396C140.365 301.395 140.93 295.561 141.711 289.917C142.366 285.237 143.113 280.714 144.314 275.981C145.649 270.752 147.456 265.25 149.523 260.017C151.98 253.824 154.884 247.951 158.653 242.576C160.999 239.28 163.639 236.13 166.92 233.816C169.127 232.279 171.562 231.136 174.203 230.713C176.219 230.388 178.383 230.502 180.414 231.113C182.197 231.657 183.943 232.591 185.357 233.768C188.338 236.296 189.926 240.047 190.861 243.756C191.739 247.184 192.103 250.541 192.248 253.972C192.522 259.899 192.155 265.986 191.477 271.99C190.637 279.347 189.3 286.572 187.528 293.679C185.64 301.222 183.256 308.631 180.454 315.862C178.972 319.655 177.382 323.353 175.375 326.872C173.994 329.296 172.443 331.608 170.893 333.919C178.081 334.648 185.16 336.279 191.944 338.762C191.416 334.031 190.871 329.362 190.934 324.656C191.079 317.911 192.502 311.109 194.158 304.435C195.563 298.693 197.201 293.079 198.945 287.56C201.346 280.089 204.149 272.858 207.509 265.777C209.301 262.067 211.235 258.328 213.54 254.689C215.7 251.343 218.187 248.019 221.331 245.469C224.144 243.163 227.523 241.474 231.265 241.413C233.665 241.391 236.288 242.027 238.389 243.122C241.834 244.91 243.966 247.876 245.469 251.205C247.553 256.087 248.175 261.708 248.222 267.241C248.287 271.715 248.025 276.167 247.47 280.475C246.759 286.603 245.444 292.503 243.864 298.399ZM235.785 306.211C237.04 302.024 238.154 297.866 239.222 293.63C240.89 287.159 242.342 280.498 242.859 273.852C243.216 269.292 243.139 264.615 242.391 259.958C241.833 256.084 240.824 252.155 238.456 249.326C237.204 247.793 235.542 246.55 233.551 246.282C232.277 246.074 230.886 246.3 229.632 246.762C227.061 247.669 225.204 249.633 223.472 251.63C221.134 254.396 219.153 257.323 217.324 260.425C214.342 265.346 211.762 270.508 209.537 275.832C206.989 281.867 204.904 288.159 202.898 294.406C201.053 300.297 199.349 306.159 197.815 312.133C196.697 316.556 195.702 321.012 195.362 325.51C195.231 327.736 195.224 329.996 195.233 332.193C195.217 332.256 195.324 332.351 195.386 332.367C195.448 332.384 195.589 332.355 195.622 332.231C195.934 331.317 196.262 330.341 196.574 329.426C197.051 327.892 197.529 326.357 198.007 324.822C198.684 322.542 199.486 320.296 200.581 318.195C201.514 316.45 202.724 314.912 204.257 313.66C205.537 312.606 207.032 311.743 208.688 311.521C209.718 311.398 210.869 311.573 211.862 311.839C212.714 312.134 213.471 312.537 214.178 313.125C214.777 313.618 215.265 314.281 215.69 314.927C216.388 316.045 216.788 317.283 217.109 318.567C217.649 320.773 217.907 323.037 217.776 325.264C217.686 327.834 217.145 330.349 216.559 332.786C216.022 335.037 215.316 337.175 214.328 339.372C213.407 341.32 212.221 343.264 210.767 344.47C209.993 345.127 209.127 345.627 208.315 346.673C207.821 347.273 207.262 348.12 207.658 348.626C207.857 348.879 208.274 349.057 208.709 349.173C209.499 349.452 210.26 349.589 210.898 349.693C211.535 349.798 212.127 349.823 212.661 349.567C213.352 349.22 214.098 348.422 214.811 347.749C216.05 346.351 217.098 345.169 218.163 343.925C220.136 341.527 222.097 338.926 223.809 336.259C226.098 332.682 227.861 328.831 229.517 324.885C231.825 319.251 233.715 313.438 235.464 307.655C235.473 307.125 235.668 306.645 235.785 306.211ZM179.148 303.606C180.113 300.007 181.077 296.407 181.934 292.713C183.111 287.574 184.09 282.183 184.8 277.052C185.422 272.496 185.854 268.155 186.037 263.748C186.312 258.501 186.418 253.141 185.886 247.678C185.568 244.4 185 241.055 182.938 238.574C181.686 237.041 179.962 235.781 178.067 235.406C176.499 235.052 174.843 235.274 173.307 235.794C170.471 236.697 168.085 238.651 166.038 240.83C163.722 243.269 161.852 246.027 160.135 248.959C157.858 252.739 155.938 256.681 154.31 260.767C152.422 265.582 150.996 270.655 149.728 275.636C147.773 283.426 146.253 291.333 145.495 299.378C144.979 305.026 144.79 310.696 145.102 316.233C145.338 319.822 145.731 323.319 146.649 327.09C147.23 329.641 148.042 332.319 149.43 334.088C149.872 334.672 150.41 335.149 150.997 335.439C151.584 335.729 152.3 335.788 153 335.909C152.65 334.485 152.395 332.953 152.14 331.422C151.644 327.564 151.615 323.699 152.336 319.768C152.969 316.412 154.149 313.004 155.927 310.088C157.835 306.941 160.421 304.242 163.762 302.942C165.472 302.269 167.347 301.974 169.006 302.485C170.231 302.879 171.339 303.708 172.211 304.674C173.281 305.892 174.037 307.291 174.714 308.737C175.164 309.788 175.551 310.823 175.877 311.842C175.906 311.983 176.076 312.095 176.278 312.082C176.481 312.07 176.576 311.963 176.626 311.777C177.668 309.129 178.4 306.399 179.148 303.606ZM176.697 349.243C151.153 343.795 127.952 350.947 124.955 365.11C121.942 379.335 140.236 395.211 165.78 400.659C191.325 406.107 214.526 398.954 217.523 384.792C220.536 370.567 202.259 354.629 176.697 349.243Z" fill="#878787"/>
</svg>
