<svg width="126" height="91" viewBox="0 0 126 91" fill="none" xmlns="http://www.w3.org/2000/svg">
<path d="M74.8694 47.9199L74.2565 47.8747L74.3369 48.484C76.4072 64.166 65.5321 78.585 49.8595 80.6541C34.1786 82.7242 19.7604 71.8507 17.6899 56.1798C16.7812 48.5548 18.811 40.9812 23.4111 34.8324L23.7682 34.355L23.2359 34.0865C15.5438 30.2063 12.2985 20.6002 16.1745 12.9165L16.1746 12.9165L16.1783 12.9088C19.4407 6.15545 27.2525 2.78652 34.3828 4.69708C42.5299 6.8801 47.5891 15.15 45.7466 23.3833L45.6079 24.0029L46.2428 23.9924C48.8445 23.9495 50.9917 24.1589 53.3895 24.8014C55.7981 25.4468 58.104 26.4339 59.965 27.6626L60.5192 28.0285L60.7176 27.3948C63.2386 19.3433 71.7549 14.7109 79.902 16.8939C88.389 19.168 93.3572 27.7732 91.0832 36.2602C89.1726 43.3905 82.3491 48.4712 74.8694 47.9199Z" stroke="black"/>
<path d="M32.988 61V35.8H43.896C46.152 35.8 48.096 36.172 49.728 36.916C51.36 37.636 52.62 38.68 53.508 40.048C54.396 41.416 54.84 43.048 54.84 44.944C54.84 46.816 54.396 48.436 53.508 49.804C52.62 51.148 51.36 52.18 49.728 52.9C48.096 53.62 46.152 53.98 43.896 53.98H36.228L38.82 51.424V61H32.988ZM49.008 61L42.708 51.856H48.936L55.308 61H49.008ZM38.82 52.072L36.228 49.336H43.572C45.372 49.336 46.716 48.952 47.604 48.184C48.492 47.392 48.936 46.312 48.936 44.944C48.936 43.552 48.492 42.472 47.604 41.704C46.716 40.936 45.372 40.552 43.572 40.552H36.228L38.82 37.78V52.072ZM68.2807 61.288C66.2167 61.288 64.3807 60.856 62.7727 59.992C61.1887 59.128 59.9287 57.952 58.9927 56.464C58.0807 54.952 57.6247 53.236 57.6247 51.316C57.6247 49.372 58.0807 47.656 58.9927 46.168C59.9287 44.656 61.1887 43.48 62.7727 42.64C64.3807 41.776 66.2167 41.344 68.2807 41.344C70.3207 41.344 72.1447 41.776 73.7527 42.64C75.3607 43.48 76.6207 44.644 77.5327 46.132C78.4447 47.62 78.9007 49.348 78.9007 51.316C78.9007 53.236 78.4447 54.952 77.5327 56.464C76.6207 57.952 75.3607 59.128 73.7527 59.992C72.1447 60.856 70.3207 61.288 68.2807 61.288ZM68.2807 56.68C69.2167 56.68 70.0567 56.464 70.8007 56.032C71.5447 55.6 72.1327 54.988 72.5647 54.196C72.9967 53.38 73.2127 52.42 73.2127 51.316C73.2127 50.188 72.9967 49.228 72.5647 48.436C72.1327 47.644 71.5447 47.032 70.8007 46.6C70.0567 46.168 69.2167 45.952 68.2807 45.952C67.3447 45.952 66.5047 46.168 65.7607 46.6C65.0167 47.032 64.4167 47.644 63.9607 48.436C63.5287 49.228 63.3127 50.188 63.3127 51.316C63.3127 52.42 63.5287 53.38 63.9607 54.196C64.4167 54.988 65.0167 55.6 65.7607 56.032C66.5047 56.464 67.3447 56.68 68.2807 56.68ZM92.0145 61.288C89.9265 61.288 88.0665 60.868 86.4345 60.028C84.8025 59.164 83.5185 57.976 82.5825 56.464C81.6705 54.952 81.2145 53.236 81.2145 51.316C81.2145 49.372 81.6705 47.656 82.5825 46.168C83.5185 44.656 84.8025 43.48 86.4345 42.64C88.0665 41.776 89.9265 41.344 92.0145 41.344C94.0545 41.344 95.8305 41.776 97.3425 42.64C98.8545 43.48 99.9705 44.692 100.691 46.276L96.3345 48.616C95.8305 47.704 95.1945 47.032 94.4265 46.6C93.6825 46.168 92.8665 45.952 91.9785 45.952C91.0185 45.952 90.1545 46.168 89.3865 46.6C88.6185 47.032 88.0065 47.644 87.5505 48.436C87.1185 49.228 86.9025 50.188 86.9025 51.316C86.9025 52.444 87.1185 53.404 87.5505 54.196C88.0065 54.988 88.6185 55.6 89.3865 56.032C90.1545 56.464 91.0185 56.68 91.9785 56.68C92.8665 56.68 93.6825 56.476 94.4265 56.068C95.1945 55.636 95.8305 54.952 96.3345 54.016L100.691 56.392C99.9705 57.952 98.8545 59.164 97.3425 60.028C95.8305 60.868 94.0545 61.288 92.0145 61.288ZM108.463 57.04L108.607 50.2L117.643 41.632H124.339L115.663 50.452L112.747 52.828L108.463 57.04ZM103.819 61V34.288H109.435V61H103.819ZM118.255 61L111.703 52.864L115.231 48.508L125.059 61H118.255Z" fill="black"/>
</svg>
